<svg width="140" height="30" viewBox="0 0 140 30" fill="none" xmlns="http://www.w3.org/2000/svg">
<path d="M25.7547 23.623C25.2506 23.623 24.7863 23.497 24.3618 23.245C23.9506 22.9929 23.6189 22.6613 23.3669 22.2501C23.1148 21.8256 22.9888 21.3613 22.9888 20.8572V12.0622C22.9888 11.5581 23.1148 11.1004 23.3669 10.6892C23.6189 10.2647 23.9506 9.92641 24.3618 9.67436C24.7863 9.42232 25.2506 9.29629 25.7547 9.29629H34.5497C35.0538 9.29629 35.5115 9.42232 35.9227 9.67436C36.3472 9.92641 36.6855 10.2647 36.9375 10.6892C37.1895 11.1004 37.3156 11.5581 37.3156 12.0622V20.8572C37.3156 21.3613 37.1895 21.8256 36.9375 22.2501C36.6855 22.6613 36.3472 22.9929 35.9227 23.245C35.5115 23.497 35.0538 23.623 34.5497 23.623H25.7547ZM25.8542 20.9766H34.4104C34.4767 20.9766 34.5364 20.9567 34.5895 20.9169C34.6426 20.8638 34.6691 20.8041 34.6691 20.7378V12.1815C34.6691 12.1152 34.6426 12.0622 34.5895 12.0224C34.5364 11.9693 34.4767 11.9428 34.4104 11.9428H25.8542C25.7878 11.9428 25.7281 11.9693 25.6751 12.0224C25.6353 12.0622 25.6154 12.1152 25.6154 12.1815V20.7378C25.6154 20.8041 25.6353 20.8638 25.6751 20.9169C25.7281 20.9567 25.7878 20.9766 25.8542 20.9766ZM41.8813 23.623C41.3772 23.623 40.9195 23.497 40.5083 23.245C40.0971 22.9929 39.7654 22.6613 39.5134 22.2501C39.2613 21.8388 39.1353 21.3812 39.1353 20.8771V14.828C39.1353 14.3239 39.2613 13.8663 39.5134 13.455C39.7654 13.0438 40.0971 12.7122 40.5083 12.4601C40.9195 12.2081 41.3772 12.0821 41.8813 12.0821H50.8355V14.6887H41.9808C41.9144 14.6887 41.8548 14.7153 41.8017 14.7683C41.7619 14.8081 41.742 14.8612 41.742 14.9275V20.7776C41.742 20.8439 41.7619 20.9036 41.8017 20.9567C41.8548 20.9965 41.9144 21.0164 41.9808 21.0164H50.8554V23.623H41.8813ZM55.2116 23.623C54.7075 23.623 54.2498 23.497 53.8386 23.245C53.4274 22.9929 53.0957 22.6613 52.8437 22.2501C52.5916 21.8388 52.4656 21.3812 52.4656 20.8771V14.828C52.4656 14.3239 52.5916 13.8663 52.8437 13.455C53.0957 13.0438 53.4274 12.7122 53.8386 12.4601C54.2498 12.2081 54.7075 12.0821 55.2116 12.0821H61.4397C61.9438 12.0821 62.4015 12.2081 62.8127 12.4601C63.2372 12.7122 63.5688 13.0438 63.8076 13.455C64.0597 13.8663 64.1857 14.3239 64.1857 14.828V19.1658H55.0723V20.7776C55.0723 20.8439 55.0922 20.9036 55.132 20.9567C55.185 20.9965 55.2447 21.0164 55.3111 21.0164H64.1857V23.623H55.2116ZM55.0723 16.8178H61.579V14.9275C61.579 14.8612 61.5525 14.8081 61.4994 14.7683C61.4596 14.7153 61.4066 14.6887 61.3402 14.6887H55.3111C55.2447 14.6887 55.185 14.7153 55.132 14.7683C55.0922 14.8081 55.0723 14.8612 55.0723 14.9275V16.8178ZM69.0087 23.623C68.5046 23.623 68.0403 23.497 67.6158 23.245C67.2046 22.9929 66.8729 22.6613 66.6209 22.2501C66.3821 21.8388 66.2627 21.3812 66.2627 20.8771V16.5393H75.3761V14.9275C75.3761 14.8612 75.3496 14.8081 75.2965 14.7683C75.2567 14.7153 75.2037 14.6887 75.1373 14.6887H66.2627V12.0821H75.2368C75.7409 12.0821 76.1986 12.2081 76.6098 12.4601C77.0343 12.7122 77.366 13.0438 77.6047 13.455C77.8568 13.8663 77.9828 14.3239 77.9828 14.828V23.623H69.0087ZM69.1082 21.0164H75.3761V18.8873H68.8694V20.7776C68.8694 20.8439 68.8893 20.9036 68.9291 20.9567C68.9822 20.9965 69.0418 21.0164 69.1082 21.0164ZM79.9048 23.623V12.0821H88.879C89.3831 12.0821 89.8407 12.2081 90.2519 12.4601C90.6764 12.7122 91.0081 13.0438 91.2469 13.455C91.4989 13.8663 91.6249 14.3239 91.6249 14.828V23.623H89.0183V14.9275C89.0183 14.8612 88.9917 14.8081 88.9387 14.7683C88.8989 14.7153 88.8458 14.6887 88.7795 14.6887H82.7503C82.684 14.6887 82.6243 14.7153 82.5712 14.7683C82.5314 14.8081 82.5115 14.8612 82.5115 14.9275V23.623H79.9048ZM93.7996 23.623V9.29629H96.6848L105.48 19.7628V9.29629H108.126V23.623H105.241L96.4262 13.1367V23.623H93.7996ZM110.395 23.623V9.29629H123.588V11.9428H113.042V15.1265H121.518V17.7929H113.042V23.623H110.395ZM130.063 23.623V11.9428H124.213V9.29629H138.54V11.9428H132.71V23.623H130.063Z" fill="white"/>
<path d="M9.13921 20.3797L0.909424 15.5229L9.13418 27.1173L17.3682 15.5229L9.13418 20.3797H9.13921ZM9.26153 0.306641L1.0351 13.9604L9.26153 18.8255L17.4913 13.9654L9.26153 0.306641Z" fill="url(#paint0_linear_413_151)"/>
<defs>
<linearGradient id="paint0_linear_413_151" x1="0.909424" y1="0.306641" x2="21.0606" y2="0.791586" gradientUnits="userSpaceOnUse">
<stop offset="0.183111" stop-color="#FF56F6"/>
<stop offset="0.432593" stop-color="#B936EE"/>
<stop offset="0.854443" stop-color="#3BACE2"/>
<stop offset="1" stop-color="#406AFF"/>
</linearGradient>
</defs>
</svg>
